<svg width="48" height="48" viewBox="0 0 48 48" fill="none" xmlns="http://www.w3.org/2000/svg">
<circle cx="24" cy="24" r="24" fill="#E9ECF1"/>
<g clip-path="url(#clip0_1593_963)">
<mask id="mask0_1593_963" style="mask-type:alpha" maskUnits="userSpaceOnUse" x="0" y="0" width="48" height="48">
<circle cx="24" cy="24" r="24" fill="#E9ECF1"/>
</mask>
<g mask="url(#mask0_1593_963)">
<path fill-rule="evenodd" clip-rule="evenodd" d="M32.7516 16.75C32.7516 21.5825 28.8341 25.5 24.0016 25.5C19.1691 25.5 15.2516 21.5825 15.2516 16.75C15.2516 11.9175 19.1691 8 24.0016 8C28.8341 8 32.7516 11.9175 32.7516 16.75ZM11.6315 34.3817C14.9122 31.1009 19.3603 29.2555 24 29.2502C28.6397 29.2555 33.0878 31.1009 36.3685 34.3817C39.6493 37.6624 41.4947 42.1105 41.5 46.7502C41.5 47.0817 41.3683 47.3997 41.1339 47.6341C40.8995 47.8685 40.5815 48.0002 40.25 48.0002H7.75C7.41848 48.0002 7.10054 47.8685 6.86612 47.6341C6.6317 47.3997 6.5 47.0817 6.5 46.7502C6.50529 42.1105 8.35074 37.6624 11.6315 34.3817Z" fill="#8D97B0"/>
</g>
</g>
<defs>
<clipPath id="clip0_1593_963">
<rect width="40" height="40" fill="white" transform="translate(4 8)"/>
</clipPath>
</defs>
</svg>
