<svg width="25" height="24" viewBox="0 0 25 24" fill="none" xmlns="http://www.w3.org/2000/svg">
<path d="M5.15 1.05C5.21986 0.956853 5.31045 0.88125 5.41459 0.82918C5.51873 0.777109 5.63357 0.75 5.75 0.75H19.25C19.3664 0.75 19.4813 0.777109 19.5854 0.82918C19.6896 0.88125 19.7801 0.956853 19.85 1.05L24.314 7.011C24.5375 7.2885 24.548 7.686 24.329 7.977L13.1 22.95C13.0301 23.0431 12.9396 23.1187 12.8354 23.1708C12.7313 23.2229 12.6164 23.25 12.5 23.25C12.3836 23.25 12.2687 23.2229 12.1646 23.1708C12.0604 23.1187 11.9699 23.0431 11.9 22.95L0.65 7.95C0.552633 7.82018 0.5 7.66228 0.5 7.5C0.5 7.33772 0.552633 7.17982 0.65 7.05L5.15 1.05ZM22.229 6.7275L19.52 3.1125L18.356 6.732L22.229 6.7275ZM16.7795 6.7335L18.221 2.25H6.779L8.2235 6.7425L16.7795 6.7335ZM8.705 8.2425L12.5 20.049L16.298 8.235L8.705 8.2425ZM6.6485 6.744L5.4785 3.111L2.7515 6.7485L6.6485 6.744ZM2.7485 8.25L10.418 18.4755L7.13 8.2455L2.75 8.25H2.7485ZM14.582 18.4755L22.2665 8.2305L17.8745 8.2335L14.582 18.4755Z" fill="#292929"/>
</svg>
