<svg width="24" height="24" viewBox="0 0 24 24" fill="none" xmlns="http://www.w3.org/2000/svg">
<path fill-rule="evenodd" clip-rule="evenodd" d="M3.75 6.75C2.92157 6.75 2.25 7.42157 2.25 8.25V18.75C2.25 19.5784 2.92157 20.25 3.75 20.25H20.25C21.0784 20.25 21.75 19.5784 21.75 18.75V8.25C21.75 7.42157 21.0784 6.75 20.25 6.75H3.75ZM0.75 8.25C0.75 6.59315 2.09315 5.25 3.75 5.25H20.25C21.9069 5.25 23.25 6.59315 23.25 8.25V18.75C23.25 20.4069 21.9069 21.75 20.25 21.75H3.75C2.09315 21.75 0.75 20.4069 0.75 18.75V8.25Z" fill="#8D97B0"/>
<path fill-rule="evenodd" clip-rule="evenodd" d="M8.25 3.75C8.05109 3.75 7.86032 3.82902 7.71967 3.96967C7.57902 4.11032 7.5 4.30109 7.5 4.5V6C7.5 6.41421 7.16421 6.75 6.75 6.75C6.33579 6.75 6 6.41421 6 6V4.5C6 3.90326 6.23705 3.33097 6.65901 2.90901C7.08097 2.48705 7.65326 2.25 8.25 2.25H15.75C16.3467 2.25 16.919 2.48705 17.341 2.90901C17.7629 3.33097 18 3.90326 18 4.5V6C18 6.41421 17.6642 6.75 17.25 6.75C16.8358 6.75 16.5 6.41421 16.5 6V4.5C16.5 4.30109 16.421 4.11032 16.2803 3.96967C16.1397 3.82902 15.9489 3.75 15.75 3.75H8.25ZM0.75 11.25C0.75 10.8358 1.08579 10.5 1.5 10.5H22.5C22.9142 10.5 23.25 10.8358 23.25 11.25C23.25 11.6642 22.9142 12 22.5 12H15.75V12.375C15.75 12.6734 15.6315 12.9595 15.4205 13.1705C15.2095 13.3815 14.9234 13.5 14.625 13.5H9.375C9.07663 13.5 8.79048 13.3815 8.5795 13.1705C8.36852 12.9595 8.25 12.6734 8.25 12.375V12H1.5C1.08579 12 0.75 11.6642 0.75 11.25Z" fill="#8D97B0"/>
</svg>
