<svg width="18" height="18" viewBox="0 0 18 18" fill="none" xmlns="http://www.w3.org/2000/svg">
<path d="M6.00526 1.78875C4.93379 2.08404 3.86961 2.40514 2.81363 2.75175C2.71721 2.78298 2.63149 2.84067 2.56625 2.91824C2.50102 2.99581 2.45887 3.09015 2.44463 3.1905C1.82138 7.86713 3.26138 11.2793 4.97926 13.527C5.70659 14.4882 6.57384 15.335 7.55213 16.0391C7.94138 16.3136 8.28563 16.5116 8.55676 16.6388C8.69176 16.7029 8.80201 16.7456 8.88638 16.7715C8.92328 16.7844 8.96133 16.7939 9.00001 16.7996C9.03823 16.7934 9.07586 16.784 9.11251 16.7715C9.19801 16.7456 9.30826 16.7029 9.44326 16.6388C9.71326 16.5116 10.0586 16.3125 10.4479 16.0391C11.4262 15.335 12.2934 14.4882 13.0208 13.527C14.7386 11.2804 16.1786 7.86713 15.5554 3.1905C15.5413 3.0901 15.4992 2.99571 15.4339 2.91811C15.3687 2.84052 15.2829 2.78287 15.1864 2.75175C14.454 2.51213 13.2176 2.12175 11.9948 1.78987C10.746 1.45125 9.59738 1.20038 9.00001 1.20038C8.40376 1.20038 7.25401 1.45012 6.00526 1.78875ZM5.70601 0.63C6.92663 0.298125 8.22376 0 9.00001 0C9.77626 0 11.0734 0.298125 12.294 0.63C13.5428 0.9675 14.8016 1.36687 15.5419 1.60875C15.8514 1.71096 16.1258 1.8984 16.3335 2.14954C16.5413 2.40068 16.674 2.70533 16.7164 3.0285C17.3869 8.06513 15.831 11.7979 13.9433 14.2673C13.1428 15.3236 12.1882 16.2538 11.1116 17.0269C10.7394 17.2944 10.3449 17.5296 9.93263 17.73C9.61763 17.8785 9.27901 18 9.00001 18C8.72101 18 8.38351 17.8785 8.06738 17.73C7.65508 17.5296 7.26065 17.2944 6.88838 17.0269C5.81179 16.2538 4.85729 15.3236 4.05676 14.2673C2.16901 11.7979 0.613131 8.06513 1.28363 3.0285C1.32603 2.70533 1.45873 2.40068 1.66649 2.14954C1.87425 1.8984 2.14863 1.71096 2.45813 1.60875C3.53272 1.25641 4.61566 0.930065 5.70601 0.63Z" fill="#0683D7"/>
<path d="M12.2105 5.78928C12.2629 5.84153 12.3044 5.9036 12.3328 5.97194C12.3611 6.04028 12.3757 6.11354 12.3757 6.18753C12.3757 6.26152 12.3611 6.33478 12.3328 6.40312C12.3044 6.47145 12.2629 6.53353 12.2105 6.58578L8.83548 9.96078C8.78323 10.0132 8.72116 10.0547 8.65282 10.0831C8.58448 10.1114 8.51122 10.126 8.43723 10.126C8.36325 10.126 8.28998 10.1114 8.22165 10.0831C8.15331 10.0547 8.09124 10.0132 8.03898 9.96078L6.35148 8.27328C6.29919 8.22098 6.2577 8.15889 6.2294 8.09056C6.20109 8.02223 6.18652 7.94899 6.18652 7.87503C6.18652 7.80107 6.20109 7.72783 6.2294 7.6595C6.2577 7.59117 6.29919 7.52908 6.35148 7.47678C6.40378 7.42448 6.46587 7.38299 6.5342 7.35469C6.60253 7.32639 6.67577 7.31182 6.74973 7.31182C6.8237 7.31182 6.89693 7.32639 6.96527 7.35469C7.0336 7.38299 7.09569 7.42448 7.14798 7.47678L8.43723 8.76715L11.414 5.78928C11.4662 5.73689 11.5283 5.69533 11.5966 5.66698C11.665 5.63862 11.7382 5.62402 11.8122 5.62402C11.8862 5.62402 11.9595 5.63862 12.0278 5.66698C12.0962 5.69533 12.1582 5.73689 12.2105 5.78928Z" fill="#0683D7"/>
</svg>
