<svg width="18" height="18" viewBox="0 0 18 18" fill="none" xmlns="http://www.w3.org/2000/svg">
<path d="M6.00526 1.78875C4.93379 2.08404 3.86961 2.40514 2.81363 2.75175C2.71721 2.78298 2.63149 2.84067 2.56625 2.91824C2.50102 2.99581 2.45887 3.09015 2.44463 3.1905C1.82138 7.86713 3.26138 11.2793 4.97926 13.527C5.70659 14.4882 6.57384 15.335 7.55213 16.0391C7.94138 16.3136 8.28563 16.5116 8.55676 16.6388C8.69176 16.7029 8.80201 16.7456 8.88638 16.7715C8.92328 16.7844 8.96133 16.7939 9.00001 16.7996C9.03823 16.7934 9.07586 16.784 9.11251 16.7715C9.19801 16.7456 9.30826 16.7029 9.44326 16.6388C9.71326 16.5116 10.0586 16.3125 10.4479 16.0391C11.4262 15.335 12.2934 14.4882 13.0208 13.527C14.7386 11.2804 16.1786 7.86713 15.5554 3.1905C15.5413 3.0901 15.4992 2.99571 15.4339 2.91811C15.3687 2.84052 15.2829 2.78287 15.1864 2.75175C14.454 2.51213 13.2176 2.12175 11.9948 1.78987C10.746 1.45125 9.59738 1.20038 9.00001 1.20038C8.40376 1.20038 7.25401 1.45012 6.00526 1.78875ZM5.70601 0.63C6.92663 0.298125 8.22376 0 9.00001 0C9.77626 0 11.0734 0.298125 12.294 0.63C13.5428 0.9675 14.8016 1.36687 15.5419 1.60875C15.8514 1.71096 16.1258 1.8984 16.3335 2.14954C16.5413 2.40068 16.674 2.70533 16.7164 3.0285C17.3869 8.06513 15.831 11.7979 13.9433 14.2673C13.1428 15.3236 12.1882 16.2538 11.1116 17.0269C10.7394 17.2944 10.3449 17.5296 9.93263 17.73C9.61763 17.8785 9.27901 18 9.00001 18C8.72101 18 8.38351 17.8785 8.06738 17.73C7.65508 17.5296 7.26065 17.2944 6.88838 17.0269C5.81179 16.2538 4.85729 15.3236 4.05676 14.2673C2.16901 11.7979 0.613131 8.06513 1.28363 3.0285C1.32603 2.70533 1.45873 2.40068 1.66649 2.14954C1.87425 1.8984 2.14863 1.71096 2.45813 1.60875C3.53272 1.25641 4.61566 0.930065 5.70601 0.63Z" fill="#FE0600"/>
<path d="M6.91428 5.78928C6.96653 5.73689 7.0286 5.69533 7.09694 5.66698C7.16528 5.63862 7.23854 5.62402 7.31253 5.62402C7.38652 5.62402 7.45978 5.63862 7.52812 5.66698C7.59645 5.69533 7.65853 5.73689 7.71078 5.78928L9.00003 7.07965L10.2893 5.78928C10.3949 5.68366 10.5382 5.62432 10.6875 5.62432C10.8369 5.62432 10.9802 5.68366 11.0858 5.78928C11.1914 5.8949 11.2507 6.03816 11.2507 6.18753C11.2507 6.3369 11.1914 6.48016 11.0858 6.58578L9.7954 7.87503L11.0858 9.16428C11.1914 9.2699 11.2507 9.41316 11.2507 9.56253C11.2507 9.7119 11.1914 9.85516 11.0858 9.96078C10.9802 10.0664 10.8369 10.1257 10.6875 10.1257C10.5382 10.1257 10.3949 10.0664 10.2893 9.96078L9.00003 8.6704L7.71078 9.96078C7.65848 10.0131 7.59639 10.0546 7.52806 10.0829C7.45973 10.1112 7.38649 10.1257 7.31253 10.1257C7.23857 10.1257 7.16533 10.1112 7.097 10.0829C7.02867 10.0546 6.96658 10.0131 6.91428 9.96078C6.86198 9.90848 6.82049 9.84639 6.79219 9.77806C6.76389 9.70973 6.74932 9.63649 6.74932 9.56253C6.74932 9.48857 6.76389 9.41533 6.79219 9.347C6.82049 9.27867 6.86198 9.21658 6.91428 9.16428L8.20465 7.87503L6.91428 6.58578C6.86189 6.53353 6.82033 6.47145 6.79198 6.40312C6.76362 6.33478 6.74902 6.26152 6.74902 6.18753C6.74902 6.11354 6.76362 6.04028 6.79198 5.97194C6.82033 5.9036 6.86189 5.84153 6.91428 5.78928Z" fill="#FE0600"/>
</svg>
