<svg width="18" height="18" viewBox="0 0 18 18" fill="none" xmlns="http://www.w3.org/2000/svg">
<path d="M8.82033 4.6125C8.83678 4.57876 8.86237 4.55033 8.8942 4.53044C8.92603 4.51055 8.9628 4.5 9.00033 4.5C9.03786 4.5 9.07464 4.51055 9.10646 4.53044C9.13829 4.55033 9.16389 4.57876 9.18033 4.6125L9.89358 6.05813C9.90786 6.08737 9.92905 6.11269 9.95532 6.1319C9.98158 6.15111 10.0121 6.16363 10.0443 6.16837L11.6418 6.40013C11.805 6.42375 11.8713 6.62513 11.7521 6.741L10.5978 7.86713C10.5745 7.88986 10.5571 7.91793 10.5472 7.9489C10.5372 7.97987 10.5349 8.01281 10.5405 8.04488L10.8127 9.63562C10.8188 9.67236 10.8146 9.71007 10.8004 9.74452C10.7863 9.77897 10.7628 9.80879 10.7327 9.83065C10.7025 9.8525 10.6669 9.86551 10.6298 9.86823C10.5926 9.87094 10.5555 9.86324 10.5225 9.846L9.09371 9.0945C9.06506 9.07952 9.03322 9.07169 9.00089 9.07169C8.96857 9.07169 8.93673 9.07952 8.90808 9.0945L7.47933 9.846C7.44636 9.86293 7.40934 9.87038 7.37238 9.86752C7.33543 9.86466 7.3 9.8516 7.27002 9.82979C7.24005 9.80799 7.21672 9.77829 7.20263 9.74401C7.18854 9.70973 7.18424 9.67221 7.19021 9.63562L7.46246 8.04488C7.4682 8.01291 7.46608 7.98002 7.45628 7.94905C7.44648 7.91809 7.4293 7.88997 7.40621 7.86713L6.24746 6.741C6.22091 6.71494 6.20216 6.682 6.19328 6.64588C6.18441 6.60976 6.18577 6.57188 6.19722 6.53648C6.20866 6.50109 6.22974 6.46959 6.25809 6.4455C6.28644 6.42142 6.32093 6.40571 6.35771 6.40013L7.95521 6.16837C7.9874 6.16363 8.01795 6.15111 8.04422 6.1319C8.07049 6.11269 8.09168 6.08737 8.10596 6.05813L8.82033 4.6125Z" fill="#0683D7"/>
<path d="M2.25 2.25C2.25 1.65326 2.48705 1.08097 2.90901 0.65901C3.33097 0.237053 3.90326 0 4.5 0L13.5 0C14.0967 0 14.669 0.237053 15.091 0.65901C15.5129 1.08097 15.75 1.65326 15.75 2.25V17.4375C15.7499 17.5392 15.7223 17.6391 15.67 17.7264C15.6177 17.8136 15.5427 17.8851 15.453 17.9331C15.3633 17.9811 15.2623 18.0039 15.1606 17.9991C15.059 17.9942 14.9606 17.9619 14.8759 17.9055L9 14.7386L3.12412 17.9055C3.03942 17.9619 2.94101 17.9942 2.83938 17.9991C2.73775 18.0039 2.6367 17.9811 2.547 17.9331C2.4573 17.8851 2.3823 17.8136 2.33 17.7264C2.2777 17.6391 2.25005 17.5392 2.25 17.4375V2.25ZM4.5 1.125C4.20163 1.125 3.91548 1.24353 3.7045 1.4545C3.49353 1.66548 3.375 1.95163 3.375 2.25V16.3867L8.68837 13.5945C8.78069 13.5331 8.88911 13.5003 9 13.5003C9.11089 13.5003 9.21931 13.5331 9.31163 13.5945L14.625 16.3867V2.25C14.625 1.95163 14.5065 1.66548 14.2955 1.4545C14.0845 1.24353 13.7984 1.125 13.5 1.125H4.5Z" fill="#0683D7"/>
</svg>
