<svg width="58" height="58" viewBox="0 0 58 58" fill="none" xmlns="http://www.w3.org/2000/svg">
<path d="M58 29C58 36.6913 54.9447 44.0675 49.5061 49.5061C44.0675 54.9447 36.6913 58 29 58C21.3087 58 13.9325 54.9447 8.4939 49.5061C3.05535 44.0675 0 36.6913 0 29C0 21.3087 3.05535 13.9325 8.4939 8.4939C13.9325 3.05535 21.3087 0 29 0C36.6913 0 44.0675 3.05535 49.5061 8.4939C54.9447 13.9325 58 21.3087 58 29ZM16.3125 27.1875C15.8318 27.1875 15.3708 27.3785 15.0309 27.7184C14.691 28.0583 14.5 28.5193 14.5 29C14.5 29.4807 14.691 29.9417 15.0309 30.2816C15.3708 30.6215 15.8318 30.8125 16.3125 30.8125H41.6875C42.1682 30.8125 42.6292 30.6215 42.9691 30.2816C43.309 29.9417 43.5 29.4807 43.5 29C43.5 28.5193 43.309 28.0583 42.9691 27.7184C42.6292 27.3785 42.1682 27.1875 41.6875 27.1875H16.3125Z" fill="#FE0600"/>
</svg>
