<svg width="58" height="58" viewBox="0 0 58 58" fill="none" xmlns="http://www.w3.org/2000/svg">
<path d="M58 29C58 36.6913 54.9447 44.0675 49.5061 49.5061C44.0675 54.9447 36.6913 58 29 58C21.3087 58 13.9325 54.9447 8.4939 49.5061C3.05535 44.0675 0 36.6913 0 29C0 21.3087 3.05535 13.9325 8.4939 8.4939C13.9325 3.05535 21.3087 0 29 0C36.6913 0 44.0675 3.05535 49.5061 8.4939C54.9447 13.9325 58 21.3087 58 29ZM43.6087 18.0162C43.3498 17.7582 43.0415 17.5551 42.7023 17.4189C42.363 17.2828 41.9998 17.2164 41.6343 17.2239C41.2688 17.2313 40.9086 17.3124 40.5752 17.4622C40.2417 17.6121 39.942 17.8276 39.6937 18.096L27.1041 34.1366L19.517 26.5459C19.0016 26.0656 18.3199 25.8042 17.6156 25.8166C16.9113 25.829 16.2392 26.1144 15.7411 26.6125C15.243 27.1106 14.9577 27.7826 14.9452 28.487C14.9328 29.1913 15.1943 29.873 15.6745 30.3884L25.2662 39.9837C25.5246 40.2417 25.8323 40.4449 26.171 40.5813C26.5096 40.7178 26.8723 40.7846 27.2373 40.7778C27.6024 40.7711 27.9623 40.6909 28.2956 40.542C28.629 40.3931 28.929 40.1786 29.1776 39.9113L43.6486 21.8225C44.142 21.3096 44.4145 20.6236 44.4077 19.912C44.4009 19.2003 44.1154 18.5197 43.6124 18.0162H43.6087Z" fill="#FCD116"/>
</svg>
