<svg width="58" height="58" viewBox="0 0 58 58" fill="none" xmlns="http://www.w3.org/2000/svg">
<path d="M29 0C12.9845 0 0 12.9845 0 29C0 45.0155 12.9845 58 29 58C45.0155 58 58 45.0155 58 29C58 12.9845 45.0155 0 29 0ZM16.4519 32.625C15.735 32.625 15.0341 32.4124 14.438 32.0141C13.8419 31.6158 13.3772 31.0496 13.1029 30.3872C12.8285 29.7248 12.7567 28.996 12.8966 28.2928C13.0364 27.5896 13.3817 26.9437 13.8887 26.4367C14.3956 25.9298 15.0415 25.5845 15.7447 25.4447C16.4479 25.3048 17.1768 25.3766 17.8391 25.6509C18.5015 25.9253 19.0677 26.3899 19.466 26.9861C19.8643 27.5822 20.0769 28.283 20.0769 29C20.0769 29.9614 19.695 30.8834 19.0152 31.5633C18.3354 32.2431 17.4133 32.625 16.4519 32.625ZM29 32.625C28.283 32.625 27.5822 32.4124 26.9861 32.0141C26.3899 31.6158 25.9253 31.0496 25.6509 30.3872C25.3766 29.7248 25.3048 28.996 25.4447 28.2928C25.5845 27.5896 25.9298 26.9437 26.4367 26.4367C26.9437 25.9298 27.5896 25.5845 28.2928 25.4447C28.996 25.3048 29.7248 25.3766 30.3872 25.6509C31.0496 25.9253 31.6158 26.3899 32.0141 26.9861C32.4124 27.5822 32.625 28.283 32.625 29C32.625 29.9614 32.2431 30.8834 31.5633 31.5633C30.8834 32.2431 29.9614 32.625 29 32.625ZM41.5481 32.625C40.8311 32.625 40.1303 32.4124 39.5341 32.0141C38.938 31.6158 38.4734 31.0496 38.199 30.3872C37.9246 29.7248 37.8529 28.996 37.9927 28.2928C38.1326 27.5896 38.4778 26.9437 38.9848 26.4367C39.4918 25.9298 40.1377 25.5845 40.8409 25.4447C41.5441 25.3048 42.2729 25.3766 42.9353 25.6509C43.5977 25.9253 44.1638 26.3899 44.5622 26.9861C44.9605 27.5822 45.1731 28.283 45.1731 29C45.1731 29.9614 44.7912 30.8834 44.1113 31.5633C43.4315 32.2431 42.5095 32.625 41.5481 32.625Z" fill="#F9701D"/>
</svg>
