<svg width="60" height="60" viewBox="0 0 60 60" fill="none" xmlns="http://www.w3.org/2000/svg">
<path d="M30.4086 0.750002C13.9583 0.527814 0.528577 13.9575 0.750765 30.4078C0.97014 46.1845 13.8162 59.0306 29.593 59.25C46.0461 59.475 59.473 46.0453 59.248 29.595C59.0314 13.8155 46.1853 0.969377 30.4086 0.750002ZM28.0475 27.8161L35.2967 19.5192C35.6894 19.0698 36.2446 18.7948 36.8401 18.7547C37.4356 18.7146 38.0226 18.9127 38.472 19.3055C38.9214 19.6982 39.1964 20.2534 39.2365 20.8489C39.2766 21.4443 39.0785 22.0314 38.6858 22.4808L31.4365 30.7777C31.2421 31.0002 31.0057 31.1822 30.7409 31.3134C30.4761 31.4446 30.188 31.5223 29.8932 31.5422C29.5983 31.562 29.3024 31.5236 29.0224 31.4291C28.7424 31.3346 28.4838 31.1859 28.2612 30.9914C28.0387 30.7969 27.8567 30.5606 27.7255 30.2957C27.5943 30.0309 27.5166 29.7429 27.4967 29.448C27.4769 29.1532 27.5153 28.8573 27.6098 28.5773C27.7043 28.2973 27.853 28.0386 28.0475 27.8161ZM22.5828 40.5919C22.1609 41.0135 21.5888 41.2504 20.9923 41.2504C20.3958 41.2504 19.8238 41.0135 19.4019 40.5919L12.6589 33.8419C12.45 33.6328 12.2844 33.3847 12.1714 33.1116C12.0585 32.8386 12.0004 32.5459 12.0005 32.2504C12.0006 31.9549 12.059 31.6623 12.1722 31.3893C12.2854 31.1164 12.4512 30.8684 12.6603 30.6595C12.8693 30.4507 13.1175 30.285 13.3905 30.1721C13.6636 30.0591 13.9563 30.001 14.2518 30.0011C14.5473 30.0013 14.8399 30.0596 15.1128 30.1728C15.3858 30.286 15.6338 30.4519 15.8426 30.6609L22.5926 37.4109C23.013 37.8342 23.2481 38.407 23.2462 39.0034C23.2444 39.5999 23.0057 40.1713 22.5828 40.5919ZM47.4453 22.4808L31.7122 40.4808C31.5095 40.713 31.2612 40.9012 30.9828 41.0335C30.7043 41.1658 30.4017 41.2395 30.0936 41.25H30.0176C29.722 41.25 29.4292 41.1918 29.1561 41.0787C28.8829 40.9655 28.6348 40.7996 28.4258 40.5905L21.6842 33.8405C21.2624 33.4183 21.0256 32.8458 21.0258 32.249C21.0261 31.6522 21.2634 31.0799 21.6856 30.6581C22.1078 30.2363 22.6803 29.9995 23.2771 29.9997C23.8739 30 24.4461 30.2373 24.868 30.6595L29.0586 34.8544C29.1675 34.9633 29.2977 35.0488 29.441 35.1054C29.5843 35.162 29.7377 35.1885 29.8917 35.1834C30.0457 35.1782 30.197 35.1415 30.3363 35.0755C30.4755 35.0094 30.5997 34.9155 30.7011 34.7995L44.0605 19.5192C44.4532 19.0698 45.0084 18.7948 45.6038 18.7547C46.1993 18.7146 46.7863 18.9127 47.2358 19.3055C47.6852 19.6982 47.9602 20.2534 48.0003 20.8489C48.0404 21.4443 47.8422 22.0314 47.4495 22.4808H47.4453Z" fill="#0683D7"/>
</svg>
