<svg width="15" height="15" viewBox="0 0 15 15" fill="none" xmlns="http://www.w3.org/2000/svg">
<path fill-rule="evenodd" clip-rule="evenodd" d="M4.35549 1.54299C4.39903 1.49933 4.45076 1.4647 4.5077 1.44107C4.56465 1.41744 4.6257 1.40527 4.68736 1.40527C4.74902 1.40527 4.81007 1.41744 4.86702 1.44107C4.92397 1.4647 4.97569 1.49933 5.01924 1.54299L10.6442 7.16799C10.6879 7.21153 10.7225 7.26326 10.7462 7.32021C10.7698 7.37715 10.7819 7.4382 10.7819 7.49986C10.7819 7.56152 10.7698 7.62257 10.7462 7.67952C10.7225 7.73647 10.6879 7.78819 10.6442 7.83174L5.01924 13.4567C4.93122 13.5448 4.81184 13.5942 4.68736 13.5942C4.56288 13.5942 4.4435 13.5448 4.35549 13.4567C4.26747 13.3687 4.21802 13.2493 4.21802 13.1249C4.21802 13.0004 4.26747 12.881 4.35549 12.793L9.64955 7.49986L4.35549 2.20674C4.31183 2.16319 4.2772 2.11147 4.25357 2.05452C4.22994 1.99757 4.21777 1.93652 4.21777 1.87486C4.21777 1.8132 4.22994 1.75215 4.25357 1.6952C4.2772 1.63826 4.31183 1.58653 4.35549 1.54299Z" fill="#717998" stroke="#717998"/>
</svg>
