<svg width="15" height="16" viewBox="0 0 15 16" fill="none" xmlns="http://www.w3.org/2000/svg">
<path d="M7.5 8C8.24592 8 8.96129 7.70368 9.48874 7.17624C10.0162 6.64879 10.3125 5.93342 10.3125 5.1875C10.3125 4.44158 10.0162 3.72621 9.48874 3.19876C8.96129 2.67132 8.24592 2.375 7.5 2.375C6.75408 2.375 6.03871 2.67132 5.51126 3.19876C4.98382 3.72621 4.6875 4.44158 4.6875 5.1875C4.6875 5.93342 4.98382 6.64879 5.51126 7.17624C6.03871 7.70368 6.75408 8 7.5 8ZM9.375 5.1875C9.375 5.68478 9.17746 6.16169 8.82582 6.51333C8.47419 6.86496 7.99728 7.0625 7.5 7.0625C7.00272 7.0625 6.52581 6.86496 6.17417 6.51333C5.82254 6.16169 5.625 5.68478 5.625 5.1875C5.625 4.69022 5.82254 4.21331 6.17417 3.86167C6.52581 3.51004 7.00272 3.3125 7.5 3.3125C7.99728 3.3125 8.47419 3.51004 8.82582 3.86167C9.17746 4.21331 9.375 4.69022 9.375 5.1875ZM13.125 12.6875C13.125 13.625 12.1875 13.625 12.1875 13.625H2.8125C2.8125 13.625 1.875 13.625 1.875 12.6875C1.875 11.75 2.8125 8.9375 7.5 8.9375C12.1875 8.9375 13.125 11.75 13.125 12.6875ZM12.1875 12.6838C12.1866 12.4531 12.0431 11.7594 11.4075 11.1237C10.7963 10.5125 9.64594 9.875 7.5 9.875C5.35313 9.875 4.20375 10.5125 3.5925 11.1237C2.95688 11.7594 2.81438 12.4531 2.8125 12.6838H12.1875Z" fill="#717998"/>
</svg>
