<svg width="15" height="15" viewBox="0 0 15 15" fill="none" xmlns="http://www.w3.org/2000/svg">
<path fill-rule="evenodd" clip-rule="evenodd" d="M10.6442 1.54299C10.6879 1.58653 10.7225 1.63826 10.7462 1.6952C10.7698 1.75215 10.7819 1.8132 10.7819 1.87486C10.7819 1.93652 10.7698 1.99757 10.7462 2.05452C10.7225 2.11147 10.6879 2.16319 10.6442 2.20674L5.35017 7.49986L10.6442 12.793C10.7323 12.881 10.7817 13.0004 10.7817 13.1249C10.7817 13.2493 10.7323 13.3687 10.6442 13.4567C10.5562 13.5448 10.4368 13.5942 10.3124 13.5942C10.1879 13.5942 10.0685 13.5448 9.98049 13.4567L4.35549 7.83174C4.31183 7.78819 4.2772 7.73647 4.25357 7.67952C4.22994 7.62257 4.21777 7.56152 4.21777 7.49986C4.21777 7.4382 4.22994 7.37715 4.25357 7.32021C4.2772 7.26326 4.31183 7.21153 4.35549 7.16799L9.98049 1.54299C10.024 1.49933 10.0758 1.4647 10.1327 1.44107C10.1897 1.41744 10.2507 1.40527 10.3124 1.40527C10.374 1.40527 10.4351 1.41744 10.492 1.44107C10.549 1.4647 10.6007 1.49933 10.6442 1.54299Z" fill="#717998" stroke="#717998"/>
</svg>
