<svg width="11" height="11" viewBox="0 0 11 11" fill="none" xmlns="http://www.w3.org/2000/svg">
<path d="M9.96875 2.0625C10.0599 2.0625 10.1474 2.09872 10.2118 2.16318C10.2763 2.22765 10.3125 2.31508 10.3125 2.40625V8.59375C10.3125 8.68492 10.2763 8.77235 10.2118 8.83682C10.1474 8.90128 10.0599 8.9375 9.96875 8.9375H1.03125C0.940082 8.9375 0.852648 8.90128 0.788182 8.83682C0.723716 8.77235 0.6875 8.68492 0.6875 8.59375V2.40625C0.6875 2.31508 0.723716 2.22765 0.788182 2.16318C0.852648 2.09872 0.940082 2.0625 1.03125 2.0625H9.96875ZM1.03125 1.375C0.757745 1.375 0.495443 1.48365 0.302046 1.67705C0.108649 1.87044 0 2.13275 0 2.40625L0 8.59375C0 8.86725 0.108649 9.12956 0.302046 9.32295C0.495443 9.51635 0.757745 9.625 1.03125 9.625H9.96875C10.2423 9.625 10.5046 9.51635 10.698 9.32295C10.8914 9.12956 11 8.86725 11 8.59375V2.40625C11 2.13275 10.8914 1.87044 10.698 1.67705C10.5046 1.48365 10.2423 1.375 9.96875 1.375H1.03125Z" fill="#717998"/>
<path d="M4.81332 3.78089C4.81332 3.68972 4.84954 3.60229 4.91401 3.53782C4.97847 3.47335 5.06591 3.43714 5.15707 3.43714H8.59457C8.68574 3.43714 8.77318 3.47335 8.83764 3.53782C8.90211 3.60229 8.93832 3.68972 8.93832 3.78089C8.93832 3.87206 8.90211 3.95949 8.83764 4.02396C8.77318 4.08842 8.68574 4.12464 8.59457 4.12464H5.15707C5.06591 4.12464 4.97847 4.08842 4.91401 4.02396C4.84954 3.95949 4.81332 3.87206 4.81332 3.78089ZM3.78483 3.19376C3.81684 3.22569 3.84224 3.26363 3.85956 3.30539C3.87689 3.34715 3.88581 3.39192 3.88581 3.43714C3.88581 3.48235 3.87689 3.52712 3.85956 3.56889C3.84224 3.61065 3.81684 3.64858 3.78483 3.68051L2.75358 4.71176C2.72164 4.74377 2.68371 4.76917 2.64195 4.7865C2.60019 4.80383 2.55542 4.81275 2.5102 4.81275C2.46498 4.81275 2.42021 4.80383 2.37845 4.7865C2.33669 4.76917 2.29876 4.74377 2.26682 4.71176L1.92307 4.36801C1.89111 4.33605 1.86576 4.29811 1.84847 4.25635C1.83117 4.21459 1.82227 4.16984 1.82227 4.12464C1.82227 4.03335 1.85853 3.94581 1.92307 3.88126C1.98762 3.81672 2.07517 3.78045 2.16645 3.78045C2.25773 3.78045 2.34528 3.81672 2.40982 3.88126L2.5102 3.98233L3.29807 3.19376C3.33001 3.16175 3.36794 3.13635 3.4097 3.11902C3.45146 3.10169 3.49623 3.09277 3.54145 3.09277C3.58667 3.09277 3.63144 3.10169 3.6732 3.11902C3.71496 3.13635 3.75289 3.16175 3.78483 3.19376ZM4.81332 6.53089C4.81332 6.43972 4.84954 6.35228 4.91401 6.28782C4.97847 6.22335 5.06591 6.18714 5.15707 6.18714H8.59457C8.68574 6.18714 8.77318 6.22335 8.83764 6.28782C8.90211 6.35228 8.93832 6.43972 8.93832 6.53089C8.93832 6.62206 8.90211 6.70949 8.83764 6.77396C8.77318 6.83842 8.68574 6.87464 8.59457 6.87464H5.15707C5.06591 6.87464 4.97847 6.83842 4.91401 6.77396C4.84954 6.70949 4.81332 6.62206 4.81332 6.53089ZM3.78483 5.94376C3.81684 5.97569 3.84224 6.01363 3.85956 6.05539C3.87689 6.09715 3.88581 6.14192 3.88581 6.18714C3.88581 6.23235 3.87689 6.27712 3.85956 6.31889C3.84224 6.36065 3.81684 6.39858 3.78483 6.43051L2.75358 7.46176C2.72164 7.49377 2.68371 7.51917 2.64195 7.5365C2.60019 7.55383 2.55542 7.56275 2.5102 7.56275C2.46498 7.56275 2.42021 7.55383 2.37845 7.5365C2.33669 7.51917 2.29876 7.49377 2.26682 7.46176L1.92307 7.11801C1.89111 7.08605 1.86576 7.04811 1.84847 7.00635C1.83117 6.96459 1.82227 6.91984 1.82227 6.87464C1.82227 6.82944 1.83117 6.78468 1.84847 6.74292C1.86576 6.70117 1.89111 6.66322 1.92307 6.63126C1.95504 6.5993 1.99298 6.57395 2.03474 6.55665C2.07649 6.53936 2.12125 6.53045 2.16645 6.53045C2.21165 6.53045 2.25641 6.53936 2.29816 6.55665C2.33992 6.57395 2.37786 6.5993 2.40982 6.63126L2.5102 6.73233L3.29807 5.94376C3.33001 5.91175 3.36794 5.88635 3.4097 5.86902C3.45146 5.85169 3.49623 5.84277 3.54145 5.84277C3.58667 5.84277 3.63144 5.85169 3.6732 5.86902C3.71496 5.88635 3.75289 5.91175 3.78483 5.94376Z" fill="#717998"/>
</svg>
