<svg width="24" height="24" viewBox="0 0 24 24" fill="none" xmlns="http://www.w3.org/2000/svg">
<path fill-rule="evenodd" clip-rule="evenodd" d="M14.1782 1.02292C14.353 0.848169 14.5901 0.75 14.8373 0.75C15.0845 0.75 15.3216 0.848169 15.4964 1.02292L17.5628 3.09165C17.5634 3.0923 17.5641 3.09296 17.5647 3.09361C17.7304 3.25883 17.8279 3.48039 17.8377 3.71423C17.8475 3.949 17.7682 4.17881 17.6157 4.35759L17.6144 4.35916C17.3783 4.63438 17.2548 4.98858 17.2687 5.35092C17.2825 5.71313 17.4325 6.05679 17.6887 6.3132C17.9455 6.56863 18.2891 6.71787 18.651 6.73111C19.0134 6.74437 19.3674 6.62037 19.6422 6.3839L19.6446 6.38182C19.8234 6.22933 20.0532 6.15005 20.288 6.15987C20.522 6.16965 20.7438 6.26727 20.909 6.43322C20.9095 6.43373 20.9101 6.43425 20.9106 6.43477L22.9768 8.50102C23.1516 8.67584 23.2499 8.91304 23.2499 9.16025C23.2499 9.40746 23.1517 9.64454 22.977 9.81936L19.6797 13.1166C19.6797 13.1166 19.6797 13.1166 19.6797 13.1166C19.476 13.3204 19.2275 13.4741 18.9541 13.5653C18.9013 13.583 18.8533 13.6128 18.814 13.6522C18.7746 13.6917 18.7449 13.7399 18.7274 13.7928L18.7269 13.7942C18.6358 14.0678 18.4823 14.3164 18.2786 14.5205L9.82182 22.9768C9.64699 23.1516 9.4098 23.2499 9.1626 23.2499C8.91539 23.2499 8.67831 23.1517 8.50348 22.977L6.43711 20.9106L6.9651 20.3779L6.43477 20.9082L6.43556 20.909C6.26961 20.7438 6.172 20.522 6.16221 20.288C6.15239 20.0532 6.23167 19.8234 6.38416 19.6446L6.38581 19.6427C6.62211 19.3676 6.74576 19.0133 6.73202 18.6509C6.71827 18.2885 6.56815 17.9446 6.3117 17.6882C6.05524 17.4317 5.71139 17.2816 5.34897 17.2679C4.98655 17.2541 4.63232 17.3778 4.35718 17.6141L4.35525 17.6157C4.17647 17.7682 3.94666 17.8475 3.71189 17.8377C3.47782 17.8279 3.25606 17.7302 3.09079 17.5643L3.09164 17.5651L3.62192 17.0348L3.08931 17.5628L1.02305 15.4965C0.848293 15.3217 0.75 15.0845 0.75 14.8373C0.75 14.5901 0.848169 14.353 1.02292 14.1782L9.47889 5.72408C9.68281 5.52055 9.93166 5.3667 10.205 5.27551C10.2577 5.25779 10.3057 5.22803 10.345 5.18859C10.3844 5.14908 10.414 5.10093 10.4315 5.04797L10.432 5.04668C10.5231 4.77292 10.6769 4.52417 10.8809 4.32016L14.1782 1.02292ZM14.8371 2.48536L11.9415 5.38089C11.9023 5.42013 11.8726 5.46805 11.8551 5.52069L11.1436 5.28371L11.8555 5.51941C11.7647 5.79361 11.6113 6.0429 11.4074 6.24748C11.2035 6.45206 10.9547 6.60632 10.6808 6.69802L10.6798 6.69835C10.6268 6.71603 10.5786 6.7458 10.539 6.78531L2.48518 14.8373L3.81453 16.1667C4.29332 15.8876 4.84477 15.7477 5.40581 15.7689C6.14612 15.797 6.8485 16.1037 7.37236 16.6275C7.89621 17.1514 8.20287 17.8538 8.23094 18.5941C8.25221 19.1551 8.1123 19.7066 7.8332 20.1853L9.16261 21.5148L17.2169 13.4609C17.2169 13.4609 17.2169 13.4609 17.2169 13.4609C17.2564 13.4213 17.2862 13.3731 17.3039 13.32L18.0154 13.5571L17.3034 13.3214C17.3942 13.0472 17.5476 12.7979 17.7515 12.5933C17.9554 12.3888 18.2042 12.2345 18.4781 12.1428L18.4792 12.1424C18.5318 12.1249 18.5797 12.0953 18.6189 12.0561L21.5147 9.16025L20.1856 7.83111C19.7075 8.11028 19.1567 8.25062 18.5962 8.23011C17.8562 8.20304 17.1537 7.89764 16.6292 7.37497L16.6281 7.37393C16.1046 6.8502 15.798 6.14812 15.7698 5.40811C15.7484 4.84712 15.8881 4.29568 16.167 3.81681L14.8371 2.48536ZM19.8452 7.49074L19.8476 7.49308C19.8468 7.4923 19.846 7.49152 19.8452 7.49074Z" fill="#8D97B0"/>
<path fill-rule="evenodd" clip-rule="evenodd" d="M10.4384 5.27924C10.7313 4.98635 11.2062 4.98635 11.4991 5.27924L12.273 6.05315C12.5659 6.34604 12.5659 6.82091 12.273 7.11381C11.9801 7.4067 11.5052 7.4067 11.2123 7.11381L10.4384 6.3399C10.1455 6.04701 10.1455 5.57213 10.4384 5.27924ZM12.7594 7.6012C13.0522 7.30817 13.5271 7.30796 13.8201 7.60072L14.3362 8.11634C14.6292 8.4091 14.6294 8.88398 14.3367 9.177C14.0439 9.47003 13.569 9.47024 13.276 9.17748L12.7599 8.66186C12.4669 8.3691 12.4667 7.89423 12.7594 7.6012ZM14.8238 9.66416C15.1168 9.3714 15.5917 9.37161 15.8845 9.66464L16.4001 10.1807C16.6929 10.4738 16.6926 10.9486 16.3996 11.2414C16.1066 11.5342 15.6317 11.5339 15.339 11.2409L14.8233 10.7248C14.5306 10.4318 14.5308 9.95691 14.8238 9.66416ZM16.887 11.7278C17.1799 11.4349 17.6548 11.4349 17.9477 11.7278L18.7216 12.5017C19.0145 12.7946 19.0145 13.2695 18.7216 13.5624C18.4287 13.8553 17.9538 13.8553 17.6609 13.5624L16.887 12.7885C16.5941 12.4956 16.5941 12.0207 16.887 11.7278Z" fill="#8D97B0"/>
</svg>
