<svg width="27" height="26" viewBox="0 0 27 26" fill="none" xmlns="http://www.w3.org/2000/svg">
<path fill-rule="evenodd" clip-rule="evenodd" d="M5.375 4.875C4.47754 4.875 3.75 5.60254 3.75 6.5V21.125C3.75 22.0225 4.47754 22.75 5.375 22.75H21.625C22.5225 22.75 23.25 22.0225 23.25 21.125V6.5C23.25 5.60254 22.5225 4.875 21.625 4.875H5.375ZM2.125 6.5C2.125 4.70507 3.58007 3.25 5.375 3.25H21.625C23.4199 3.25 24.875 4.70507 24.875 6.5V21.125C24.875 22.9199 23.4199 24.375 21.625 24.375H5.375C3.58007 24.375 2.125 22.9199 2.125 21.125V6.5Z" fill="#717998"/>
<path d="M15.5312 13C16.2043 13 16.75 12.4543 16.75 11.7812C16.75 11.1082 16.2043 10.5625 15.5312 10.5625C14.8582 10.5625 14.3125 11.1082 14.3125 11.7812C14.3125 12.4543 14.8582 13 15.5312 13Z" fill="#717998"/>
<path d="M19.5938 13C20.2668 13 20.8125 12.4543 20.8125 11.7812C20.8125 11.1082 20.2668 10.5625 19.5938 10.5625C18.9207 10.5625 18.375 11.1082 18.375 11.7812C18.375 12.4543 18.9207 13 19.5938 13Z" fill="#717998"/>
<path d="M15.5312 17.0625C16.2043 17.0625 16.75 16.5168 16.75 15.8438C16.75 15.1707 16.2043 14.625 15.5312 14.625C14.8582 14.625 14.3125 15.1707 14.3125 15.8438C14.3125 16.5168 14.8582 17.0625 15.5312 17.0625Z" fill="#717998"/>
<path d="M19.5938 17.0625C20.2668 17.0625 20.8125 16.5168 20.8125 15.8438C20.8125 15.1707 20.2668 14.625 19.5938 14.625C18.9207 14.625 18.375 15.1707 18.375 15.8438C18.375 16.5168 18.9207 17.0625 19.5938 17.0625Z" fill="#717998"/>
<path d="M7.40625 17.0625C8.07935 17.0625 8.625 16.5168 8.625 15.8438C8.625 15.1707 8.07935 14.625 7.40625 14.625C6.73315 14.625 6.1875 15.1707 6.1875 15.8438C6.1875 16.5168 6.73315 17.0625 7.40625 17.0625Z" fill="#717998"/>
<path d="M11.4688 17.0625C12.1418 17.0625 12.6875 16.5168 12.6875 15.8438C12.6875 15.1707 12.1418 14.625 11.4688 14.625C10.7957 14.625 10.25 15.1707 10.25 15.8438C10.25 16.5168 10.7957 17.0625 11.4688 17.0625Z" fill="#717998"/>
<path d="M7.40625 21.125C8.07935 21.125 8.625 20.5793 8.625 19.9062C8.625 19.2332 8.07935 18.6875 7.40625 18.6875C6.73315 18.6875 6.1875 19.2332 6.1875 19.9062C6.1875 20.5793 6.73315 21.125 7.40625 21.125Z" fill="#717998"/>
<path d="M11.4688 21.125C12.1418 21.125 12.6875 20.5793 12.6875 19.9062C12.6875 19.2332 12.1418 18.6875 11.4688 18.6875C10.7957 18.6875 10.25 19.2332 10.25 19.9062C10.25 20.5793 10.7957 21.125 11.4688 21.125Z" fill="#717998"/>
<path d="M15.5312 21.125C16.2043 21.125 16.75 20.5793 16.75 19.9062C16.75 19.2332 16.2043 18.6875 15.5312 18.6875C14.8582 18.6875 14.3125 19.2332 14.3125 19.9062C14.3125 20.5793 14.8582 21.125 15.5312 21.125Z" fill="#717998"/>
<path fill-rule="evenodd" clip-rule="evenodd" d="M7 1.625C7.44873 1.625 7.8125 1.98877 7.8125 2.4375V4.0625C7.8125 4.51123 7.44873 4.875 7 4.875C6.55127 4.875 6.1875 4.51123 6.1875 4.0625V2.4375C6.1875 1.98877 6.55127 1.625 7 1.625ZM20 1.625C20.4487 1.625 20.8125 1.98877 20.8125 2.4375V4.0625C20.8125 4.51123 20.4487 4.875 20 4.875C19.5513 4.875 19.1875 4.51123 19.1875 4.0625V2.4375C19.1875 1.98877 19.5513 1.625 20 1.625Z" fill="#717998"/>
<path fill-rule="evenodd" clip-rule="evenodd" d="M2.9375 7.3125H24.0625V8.9375H2.9375V7.3125Z" fill="#717998"/>
</svg>
