<svg width="25" height="24" viewBox="0 0 25 24" fill="none" xmlns="http://www.w3.org/2000/svg">
<path d="M9.5 1.5V6H2V1.5H9.5ZM2 0C1.60218 0 1.22064 0.158035 0.93934 0.43934C0.658035 0.720644 0.5 1.10218 0.5 1.5L0.5 6C0.5 6.39782 0.658035 6.77936 0.93934 7.06066C1.22064 7.34196 1.60218 7.5 2 7.5H9.5C9.89782 7.5 10.2794 7.34196 10.5607 7.06066C10.842 6.77936 11 6.39782 11 6V1.5C11 1.10218 10.842 0.720644 10.5607 0.43934C10.2794 0.158035 9.89782 0 9.5 0L2 0ZM23 18V22.5H15.5V18H23ZM15.5 16.5C15.1022 16.5 14.7206 16.658 14.4393 16.9393C14.158 17.2206 14 17.6022 14 18V22.5C14 22.8978 14.158 23.2794 14.4393 23.5607C14.7206 23.842 15.1022 24 15.5 24H23C23.3978 24 23.7794 23.842 24.0607 23.5607C24.342 23.2794 24.5 22.8978 24.5 22.5V18C24.5 17.6022 24.342 17.2206 24.0607 16.9393C23.7794 16.658 23.3978 16.5 23 16.5H15.5ZM9.5 12V22.5H2V12H9.5ZM2 10.5C1.60218 10.5 1.22064 10.658 0.93934 10.9393C0.658035 11.2206 0.5 11.6022 0.5 12L0.5 22.5C0.5 22.8978 0.658035 23.2794 0.93934 23.5607C1.22064 23.842 1.60218 24 2 24H9.5C9.89782 24 10.2794 23.842 10.5607 23.5607C10.842 23.2794 11 22.8978 11 22.5V12C11 11.6022 10.842 11.2206 10.5607 10.9393C10.2794 10.658 9.89782 10.5 9.5 10.5H2ZM23 1.5V12H15.5V1.5H23ZM15.5 0C15.1022 0 14.7206 0.158035 14.4393 0.43934C14.158 0.720644 14 1.10218 14 1.5V12C14 12.3978 14.158 12.7794 14.4393 13.0607C14.7206 13.342 15.1022 13.5 15.5 13.5H23C23.3978 13.5 23.7794 13.342 24.0607 13.0607C24.342 12.7794 24.5 12.3978 24.5 12V1.5C24.5 1.10218 24.342 0.720644 24.0607 0.43934C23.7794 0.158035 23.3978 0 23 0L15.5 0Z" fill="#717998"/>
</svg>
