<svg width="25" height="24" viewBox="0 0 25 24" fill="none" xmlns="http://www.w3.org/2000/svg">
<path d="M0.5 12.0004C0.499486 10.6791 0.935095 9.39469 1.73922 8.34633C2.54335 7.29798 3.67103 6.54437 4.94726 6.20245C6.22349 5.86052 7.57689 5.94941 8.79743 6.45532C10.018 6.96123 11.0374 7.85586 11.6975 9.00038H21.5C21.5986 9.00021 21.6962 9.01946 21.7873 9.05704C21.8784 9.09461 21.9612 9.14978 22.031 9.21938L24.281 11.4694C24.3508 11.5391 24.4063 11.6218 24.4441 11.7129C24.4819 11.8041 24.5013 11.9017 24.5013 12.0004C24.5013 12.099 24.4819 12.1967 24.4441 12.2878C24.4063 12.379 24.3508 12.4617 24.281 12.5314L22.031 14.7814C21.9613 14.8512 21.8786 14.9066 21.7874 14.9445C21.6963 14.9823 21.5987 15.0017 21.5 15.0017C21.4013 15.0017 21.3037 14.9823 21.2126 14.9445C21.1214 14.9066 21.0387 14.8512 20.969 14.7814L20 13.8109L19.031 14.7814C18.9613 14.8512 18.8786 14.9066 18.7874 14.9445C18.6963 14.9823 18.5987 15.0017 18.5 15.0017C18.4013 15.0017 18.3037 14.9823 18.2126 14.9445C18.1214 14.9066 18.0387 14.8512 17.969 14.7814L17 13.8109L16.031 14.7814C15.9613 14.8512 15.8786 14.9066 15.7874 14.9445C15.6963 14.9823 15.5987 15.0017 15.5 15.0017C15.4013 15.0017 15.3037 14.9823 15.2126 14.9445C15.1214 14.9066 15.0387 14.8512 14.969 14.7814L14 13.8109L13.031 14.7814C12.9612 14.851 12.8784 14.9062 12.7873 14.9437C12.6962 14.9813 12.5986 15.0006 12.5 15.0004H11.6975C11.0374 16.1449 10.018 17.0395 8.79743 17.5454C7.57689 18.0514 6.22349 18.1402 4.94726 17.7983C3.67103 17.4564 2.54335 16.7028 1.73922 15.6544C0.935095 14.6061 0.499486 13.3216 0.5 12.0004ZM6.5 7.50038C5.69471 7.50069 4.90426 7.71709 4.2111 8.127C3.51795 8.53691 2.94749 9.12531 2.55924 9.83083C2.17099 10.5363 1.97918 11.3331 2.00381 12.138C2.02845 12.9429 2.26862 13.7265 2.69929 14.407C3.12995 15.0874 3.73532 15.6398 4.45224 16.0066C5.16917 16.3734 5.97137 16.541 6.77518 16.4921C7.57898 16.4431 8.35492 16.1794 9.02205 15.7284C9.68919 15.2773 10.2231 14.6556 10.568 13.9279C10.6289 13.8 10.7247 13.692 10.8445 13.6164C10.9642 13.5407 11.1029 13.5005 11.2445 13.5004H12.1895L13.469 12.2194C13.5387 12.1495 13.6214 12.0941 13.7126 12.0563C13.8037 12.0185 13.9013 11.999 14 11.999C14.0987 11.999 14.1963 12.0185 14.2874 12.0563C14.3786 12.0941 14.4613 12.1495 14.531 12.2194L15.5 13.1899L16.469 12.2194C16.5387 12.1495 16.6214 12.0941 16.7126 12.0563C16.8037 12.0185 16.9013 11.999 17 11.999C17.0987 11.999 17.1963 12.0185 17.2874 12.0563C17.3786 12.0941 17.4613 12.1495 17.531 12.2194L18.5 13.1899L19.469 12.2194C19.5387 12.1495 19.6214 12.0941 19.7126 12.0563C19.8037 12.0185 19.9013 11.999 20 11.999C20.0987 11.999 20.1963 12.0185 20.2874 12.0563C20.3786 12.0941 20.4613 12.1495 20.531 12.2194L21.5 13.1899L22.6895 12.0004L21.1895 10.5004H11.2445C11.1029 10.5003 10.9642 10.4601 10.8445 10.3844C10.7247 10.3087 10.6289 10.2007 10.568 10.0729C10.203 9.30295 9.62698 8.65245 8.90684 8.19705C8.18669 7.74165 7.35206 7.50006 6.5 7.50038Z" fill="#0683D7"/>
<path d="M6.5 12C6.5 12.3978 6.34196 12.7794 6.06066 13.0607C5.77936 13.342 5.39782 13.5 5 13.5C4.60218 13.5 4.22064 13.342 3.93934 13.0607C3.65804 12.7794 3.5 12.3978 3.5 12C3.5 11.6022 3.65804 11.2206 3.93934 10.9393C4.22064 10.658 4.60218 10.5 5 10.5C5.39782 10.5 5.77936 10.658 6.06066 10.9393C6.34196 11.2206 6.5 11.6022 6.5 12Z" fill="#0683D7"/>
</svg>
