<svg width="25" height="24" viewBox="0 0 25 24" fill="none" xmlns="http://www.w3.org/2000/svg">
<path d="M12.5 12C13.6935 12 14.8381 11.5259 15.682 10.682C16.5259 9.83807 17 8.69347 17 7.5C17 6.30653 16.5259 5.16193 15.682 4.31802C14.8381 3.47411 13.6935 3 12.5 3C11.3065 3 10.1619 3.47411 9.31802 4.31802C8.47411 5.16193 8 6.30653 8 7.5C8 8.69347 8.47411 9.83807 9.31802 10.682C10.1619 11.5259 11.3065 12 12.5 12ZM15.5 7.5C15.5 8.29565 15.1839 9.05871 14.6213 9.62132C14.0587 10.1839 13.2956 10.5 12.5 10.5C11.7044 10.5 10.9413 10.1839 10.3787 9.62132C9.81607 9.05871 9.5 8.29565 9.5 7.5C9.5 6.70435 9.81607 5.94129 10.3787 5.37868C10.9413 4.81607 11.7044 4.5 12.5 4.5C13.2956 4.5 14.0587 4.81607 14.6213 5.37868C15.1839 5.94129 15.5 6.70435 15.5 7.5ZM21.5 19.5C21.5 21 20 21 20 21H5C5 21 3.5 21 3.5 19.5C3.5 18 5 13.5 12.5 13.5C20 13.5 21.5 18 21.5 19.5ZM20 19.494C19.9985 19.125 19.769 18.015 18.752 16.998C17.774 16.02 15.9335 15 12.5 15C9.065 15 7.226 16.02 6.248 16.998C5.231 18.015 5.003 19.125 5 19.494H20Z" fill="#0683D7"/>
</svg>
